<svg width="13" height="18" viewBox="0 0 13 18" fill="none" xmlns="http://www.w3.org/2000/svg">
<path d="M0.447097 2.17243C0.447097 1.33864 1.12054 0.633121 1.98641 0.633121V2.17243V14.8076L6.15537 11.8252C6.41192 11.6328 6.76468 11.6328 7.0533 11.8252L11.2223 14.8076V2.17243H1.98641V0.633121H11.2223C12.056 0.633121 12.7616 1.33864 12.7616 2.17243V16.2828C12.7616 16.5714 12.6012 16.86 12.3447 16.9883C12.0881 17.1165 11.7674 17.0845 11.5429 16.9241L6.60433 13.3966L1.63365 16.9241C1.40916 17.0845 1.12054 17.1165 0.863993 16.9883C0.607441 16.86 0.447097 16.5714 0.447097 16.2828V2.17243Z" fill="white"/>
</svg>
