<svg width="15" height="15" viewBox="0 0 15 15" fill="none" xmlns="http://www.w3.org/2000/svg">
<path d="M3.42917 6.33474C3.25701 6.82252 2.71184 7.08076 2.25275 6.9086C1.76496 6.73644 1.50672 6.21997 1.67888 5.73218C1.99451 4.84269 2.51099 4.01059 3.19962 3.32195C5.72463 0.825635 9.77038 0.825635 12.2954 3.32195L12.7832 3.83843V2.34638C12.7832 1.85859 13.2136 1.42819 13.7014 1.42819C14.2178 1.42819 14.6195 1.85859 14.6195 2.34638V6.01911C14.6195 6.53559 14.2178 6.9373 13.7014 6.9373H10.0573C9.54083 6.9373 9.13913 6.53559 9.13913 6.01911C9.13913 5.53133 9.54083 5.10093 10.0573 5.10093H11.492L11.0042 4.61314C9.19651 2.83416 6.2985 2.83416 4.49082 4.61314C4.00304 5.12962 3.63002 5.70349 3.42917 6.33474ZM1.53542 8.83105C1.56411 8.80236 1.6215 8.80236 1.65019 8.80236C1.70758 8.80236 1.73627 8.77367 1.79366 8.77367H5.46639C5.95418 8.77367 6.38458 9.20406 6.38458 9.69185C6.38458 10.2083 5.95418 10.61 5.46639 10.61H4.00304L4.49082 11.1265C6.2985 12.9055 9.19651 12.9055 11.0042 11.1265C11.492 10.61 11.865 10.0362 12.0658 9.40492C12.238 8.91713 12.7832 8.65889 13.2423 8.83105C13.73 9.00321 13.9883 9.51969 13.8161 10.0075C13.5005 10.897 12.984 11.7004 12.2954 12.4177C9.77038 14.914 5.72463 14.914 3.19962 12.4177L2.71184 11.9012V13.3646C2.71184 13.8811 2.28144 14.2828 1.79366 14.2828C1.27718 14.2828 0.875471 13.8811 0.875471 13.3646V9.72054C0.875471 9.66316 0.875471 9.60577 0.875471 9.57708C0.875471 9.51969 0.875471 9.491 0.904164 9.4623C0.932858 9.31884 1.01894 9.17537 1.13371 9.0606C1.24848 8.94583 1.39195 8.85975 1.53542 8.83105Z" fill="#FFC700"/>
</svg>
